<svg width="184" height="40" viewBox="0 0 184 40" fill="none" xmlns="http://www.w3.org/2000/svg"><path fill-rule="evenodd" clip-rule="evenodd" d="M16.7296 8.11719H19.4127V31.881H16.7296C14.3828 31.881 12.4629 29.9601 12.4629 27.6133V12.3849C12.4629 10.0371 14.3828 8.11719 16.7296 8.11719Z" fill="#F5BD20"></path><path fill-rule="evenodd" clip-rule="evenodd" d="M23.5835 8.11719H20.9004V24.9253H23.5835C25.9303 24.9253 27.8502 23.0044 27.8502 20.6576V12.3849C27.8502 10.0371 25.9303 8.11719 23.5835 8.11719Z" fill="#F5BD20"></path><path d="M20.1567 0.578125C25.52 0.578125 30.3749 2.75178 33.8891 6.26703C37.4043 9.78129 39.578 14.6371 39.578 19.9995C39.578 25.3619 37.4043 30.2177 33.8891 33.732C30.3749 37.2462 25.52 39.4199 20.1567 39.4199C14.7943 39.4199 9.93849 37.2462 6.42424 33.732C2.90999 30.2177 0.736328 25.3619 0.736328 19.9995C0.736328 14.6371 2.90999 9.78129 6.42424 6.26703C9.93849 2.75178 14.7943 0.578125 20.1567 0.578125ZM32.3194 7.83681C29.2074 4.72482 24.9073 2.79899 20.1567 2.79899C15.4071 2.79899 11.107 4.72482 7.99498 7.83681C4.88301 10.9488 2.9572 15.2489 2.9572 19.9985C2.9572 24.7481 4.88202 29.0483 7.99498 32.1603C11.107 35.2722 15.4071 37.1971 20.1567 37.1971C24.9063 37.1971 29.2064 35.2722 32.3194 32.1603C35.4313 29.0483 37.3562 24.7481 37.3562 19.9985C37.3562 15.2489 35.4313 10.9488 32.3194 7.83681Z" fill="#F5BD20"></path><path d="M53.445 10.7494C57.5317 10.7494 59.5746 13.7267 59.5746 16.7039C59.5746 19.1559 57.2101 21.841 53.4155 21.841C52.5687 21.841 51.6638 21.724 50.7009 21.4319C52.4812 22.2197 54.0863 22.5699 55.4879 22.5699C59.9828 22.5699 62.4928 19.1844 62.4928 16.7029C62.4928 13.4926 59.7782 10.2812 54.3204 10.2812H47.5781V30.7137H50.2632V10.7484H53.445V10.7494Z" fill="#13110B"></path><path d="M66.8281 30.711H69.5132V10.7457L71.7026 10.7162C75.8473 10.7742 77.8902 13.4013 77.8902 15.9114C77.8902 18.3044 76.11 20.5528 72.6075 20.5528C71.7607 20.5528 70.8558 20.4358 69.8349 20.1446C71.2354 20.7574 72.52 21.1075 73.6589 21.2246C77.8036 22.4216 76.8988 31.0317 82.2985 31.0317C82.8827 31.0317 83.5535 30.9146 84.2833 30.711C80.5763 31.1487 81.3356 22.3626 75.2936 21.2541C78.7085 20.962 80.6648 18.51 80.6648 15.9714C80.6648 13.1397 78.1833 10.25 72.4039 10.25H66.8291V30.711H66.8281Z" fill="#13110B"></path><path d="M97.0245 10.2812H96.5278L86.166 30.7137H88.9387C88.9387 30.7137 88.9387 30.5092 88.8216 30.4807C88.559 30.3931 88.2669 29.8679 88.2669 28.9915C88.2669 28.2037 88.5 27.1238 89.1718 25.7812L95.5354 13.2005L102.19 26.3064C100.118 24.117 97.0235 22.4538 94.3679 22.4538C92.5877 22.4538 91.011 23.1541 90.0186 24.9639C91.1566 23.4462 92.6752 22.804 94.2804 22.804C97.7248 22.804 101.577 25.5766 103.27 28.4378L104.438 30.7147H107.385L97.0235 10.2822L97.0245 10.2812Z" fill="#13110B"></path><path d="M125.732 10.2812H112.626L111.779 12.5867C111.809 12.5867 111.984 12.5867 112.012 12.4992C112.217 12.032 114.435 10.7475 119.747 10.7475H122.491L110.145 30.7128H126.023L126.84 28.4073C126.84 28.4073 126.665 28.4073 126.607 28.4948C126.432 28.962 124.214 30.2465 118.901 30.2465H113.647L125.731 10.2812H125.732Z" fill="#13110B"></path><path d="M145.334 10.2812H132.228L131.381 12.5867C131.41 12.5867 131.585 12.5867 131.614 12.4992C131.818 12.032 134.036 10.7475 139.349 10.7475H142.093L129.746 30.7128H145.625L146.442 28.4073C146.442 28.4073 146.267 28.4073 146.209 28.4948C146.034 28.962 143.816 30.2465 138.503 30.2465H133.249L145.333 10.2812H145.334Z" fill="#13110B"></path><path d="M165.137 28.4073C165.137 28.4073 164.962 28.4073 164.904 28.4948C164.729 28.962 162.511 30.2466 157.169 30.2466H153.375V10.2812H150.689V30.7137H164.321L165.138 28.4083L165.137 28.4073Z" fill="#13110B"></path><path d="M169.182 30.7128H182.783L183.571 28.5529C183.571 28.5529 183.367 28.5529 183.338 28.6404C183.133 29.1076 180.974 30.2456 175.661 30.2456H171.838V10.7475H174.873C179.164 10.7475 181.85 11.4192 182.23 12.0615C182.259 12.1195 182.492 12.149 182.492 12.149L182.142 10.2812H169.183V30.7137L169.182 30.7128ZM172.188 21.3138C172.598 20.2339 173.21 19.8838 173.94 19.8838C175.341 19.8838 177.15 21.2844 178.581 21.2844C179.224 21.2844 179.807 20.9637 180.216 20.0588C179.837 20.5555 179.341 20.7591 178.786 20.7591C177.326 20.7591 175.459 19.4166 174.057 19.4166C173.21 19.4166 172.54 19.8542 172.189 21.3138H172.188Z" fill="#13110B"></path></svg>